<svg width="400" height="300" viewBox="0 0 400 300" fill="none" xmlns="http://www.w3.org/2000/svg">
  <!-- Background gradient -->
  <defs>
    <linearGradient id="bgGradient" x1="0%" y1="0%" x2="100%" y2="100%">
      <stop offset="0%" style="stop-color:#1E293B;stop-opacity:1" />
      <stop offset="100%" style="stop-color:#0F172A;stop-opacity:1" />
    </linearGradient>
  </defs>
  
  <!-- Background -->
  <rect width="400" height="300" fill="url(#bgGradient)"/>
  
  <!-- Lucide hard hat - stroke version -->
  <g transform="translate(80, 40) scale(10)">
    <!-- Top part of hard hat -->
    <path d="M10 10V5a1 1 0 0 1 1-1h2a1 1 0 0 1 1 1v5" stroke="#FFECC2" stroke-width="2" stroke-linecap="round" stroke-linejoin="round" fill="none" opacity="0.9"/>
    
    <!-- Right side -->
    <path d="M14 6a6 6 0 0 1 6 6v3" stroke="#FFECC2" stroke-width="2" stroke-linecap="round" stroke-linejoin="round" fill="none" opacity="0.8"/>
    
    <!-- Left side -->
    <path d="M4 15v-3a6 6 0 0 1 6-6" stroke="#FFECC2" stroke-width="2" stroke-linecap="round" stroke-linejoin="round" fill="none" opacity="0.8"/>
    
    <!-- Brim/base -->
    <rect x="2" y="15" width="20" height="4" rx="1" stroke="#FFECC2" stroke-width="2" fill="none" opacity="0.85"/>
  </g>
  
  <!-- Decorative elements -->
  <circle cx="80" cy="80" r="20" fill="#FFECC2" opacity="0.05"/>
  <circle cx="320" cy="220" r="15" fill="#FFECC2" opacity="0.05"/>
  <circle cx="350" cy="60" r="10" fill="#FFECC2" opacity="0.05"/>
</svg>